<svg xmlns="http://www.w3.org/2000/svg" viewBox="0 0 61.5 61.5"><defs><style>.cls-1{fill:#ceb0d1;stroke:#6d3556;stroke-miterlimit:10;stroke-width:1.5px;opacity:0;}</style></defs><g id="Layer_2" data-name="Layer 2"><g id="Layer_1-2" data-name="Layer 1"><rect class="cls-1" x="0.75" y="0.75" width="60" height="60" rx="12.63"/><path d="M44.66,29.22H32.6V41.47H25.35l4.21,4.08-.17.31H26.74c-3.1,0-6.21,0-9.32,0-.91,0-1.29-.28-1.28-1.24q0-8.3,0-16.58c0-.95.34-1.26,1.27-1.26q13,0,26,0c.94,0,1.34.34,1.24,1.28C44.63,28.4,44.66,28.72,44.66,29.22Z"/><path d="M34.44,50.84H12.37A1.59,1.59,0,0,1,10.57,49V13c0-1.27.59-1.84,1.88-1.84q14.86,0,29.72,0a2.3,2.3,0,0,1,1.44.57q3.09,3,6,6.06a2.07,2.07,0,0,1,.56,1.33c0,7.27,0,14.54,0,21.81,0,.13,0,.27-.06.46H48.73V40.29c0-6.76,0-13.52,0-20.28a2.91,2.91,0,0,0-.7-1.8c-1.57-1.69-3.22-3.32-4.91-4.91a2.5,2.5,0,0,0-1.51-.6c-1.87-.07-3.75,0-5.81,0v1.85c0,2.31,0,4.63,0,6.94,0,.88-.28,1.22-1.19,1.22q-7.59,0-15.18,0c-.93,0-1.3-.31-1.28-1.26,0-2.85,0-5.71,0-8.65h-6V49.33h1.13c6.14,0,12.29,0,18.44,0A2.85,2.85,0,0,1,34.44,50.84ZM19.69,17c0,1,0,2.09,0,3.14,0,.77.33,1.22,1.18,1.2,1.26,0,2.52,0,3.79,0a1,1,0,0,0,1.19-1.08c0-2.17,0-4.33,0-6.5a1,1,0,0,0-1.17-1.09c-1.26,0-2.53,0-3.79,0-.84,0-1.19.39-1.2,1.17C19.68,14.88,19.69,15.93,19.69,17Z"/><path d="M44.75,43.24h4.51L39.49,53l-9.7-9.71h4.57V31.11H44.75Z"/><path d="M50.24,45.38c0,1.28,0,2.57,0,3.86a1.49,1.49,0,0,1-1.57,1.58c-1.29,0-2.59,0-3.89,0,.71-2,2.41-1.41,3.9-1.54C48.93,47.89,48.13,46.09,50.24,45.38Z"/></g></g></svg>